<?xml version="1.0" encoding="UTF-8" standalone="no"?>
<svg
   xmlns:dc="http://purl.org/dc/elements/1.1/"
   xmlns:cc="http://creativecommons.org/ns#"
   xmlns:rdf="http://www.w3.org/1999/02/22-rdf-syntax-ns#"
   xmlns:svg="http://www.w3.org/2000/svg"
   xmlns="http://www.w3.org/2000/svg"
   xmlns:sodipodi="http://sodipodi.sourceforge.net/DTD/sodipodi-0.dtd"
   xmlns:inkscape="http://www.inkscape.org/namespaces/inkscape"
   width="1280"
   height="320"
   viewBox="0 0 338.66666 84.66667"
   version="1.1"
   id="svg8"
   inkscape:version="1.0.2 (e86c870879, 2021-01-15, custom)"
   sodipodi:docname="Shamisen-Logo.svg"
   inkscape:export-filename="C:\Visual Studio 2019\Repos\MonoAudio\MonoAudio-Logo.png"
   inkscape:export-xdpi="144"
   inkscape:export-ydpi="144">
  <defs
     id="defs2">
    <inkscape:path-effect
       effect="fillet_chamfer"
       id="path-effect884"
       is_visible="true"
       lpeversion="1"
       satellites_param="F,0,0,1,0,2.6458333,0,1 @ F,0,0,1,0,2.6458333,0,1 @ F,0,0,1,0,2.6458333,0,1 @ F,0,0,1,0,2.6458333,0,1"
       unit="px"
       method="auto"
       mode="F"
       radius="10"
       chamfer_steps="1"
       flexible="false"
       use_knot_distance="true"
       apply_no_radius="true"
       apply_with_radius="true"
       only_selected="false"
       hide_knots="false" />
    <inkscape:path-effect
       effect="fillet_chamfer"
       id="path-effect862"
       is_visible="true"
       lpeversion="1"
       satellites_param="F,0,0,1,0,2.6458333,0,1 @ F,0,0,1,0,2.6458333,0,1 @ F,0,0,1,0,2.6458333,0,1 @ F,0,0,1,0,2.6458333,0,1 @ F,0,0,1,0,2.6458333,0,1 @ F,0,0,1,0,2.6458333,0,1 @ F,0,0,1,0,2.6458333,0,1 @ F,0,0,1,0,2.6458333,0,1"
       unit="px"
       method="auto"
       mode="F"
       radius="10"
       chamfer_steps="1"
       flexible="false"
       use_knot_distance="true"
       apply_no_radius="true"
       apply_with_radius="true"
       only_selected="false"
       hide_knots="false" />
    <inkscape:path-effect
       effect="fillet_chamfer"
       id="path-effect860"
       is_visible="true"
       lpeversion="1"
       satellites_param="F,0,0,1,0,10.583333,0,1 @ F,0,0,1,0,10.583333,0,1 @ F,0,0,1,0,10.583333,0,1 @ F,0,0,1,0,10.583333,0,1 @ F,0,0,1,0,10.583333,0,1 @ F,0,0,1,0,10.583333,0,1 @ F,0,0,1,0,10.583333,0,1 @ F,0,0,1,0,10.583333,0,1 @ F,0,0,1,0,10.583333,0,1 @ F,0,0,1,0,10.583333,0,1 | F,0,0,1,0,10.583333,0,1 @ F,0,0,1,0,10.583333,0,1 @ F,0,0,1,0,10.583333,0,1 @ F,0,0,1,0,10.583333,0,1"
       unit="px"
       method="auto"
       mode="F"
       radius="40"
       chamfer_steps="1"
       flexible="false"
       use_knot_distance="true"
       apply_no_radius="true"
       apply_with_radius="true"
       only_selected="false"
       hide_knots="false" />
    <inkscape:path-effect
       effect="fillet_chamfer"
       id="path-effect2547"
       is_visible="true"
       lpeversion="1"
       satellites_param="F,0,0,1,0,2.6458333,0,1 @ F,0,0,1,0,2.6458333,0,1 @ F,0,0,1,0,2.6458333,0,1 @ F,0,0,1,0,2.6458333,0,1 @ F,0,0,1,0,2.6458333,0,1 @ F,0,0,1,0,2.6458333,0,1 @ F,0,0,1,0,2.6458333,0,1 @ F,0,0,1,0,2.6458333,0,1 @ F,0,0,1,0,2.6458333,0,1 @ F,0,0,1,0,2.6458333,0,1 @ F,0,0,1,0,2.6458333,0,1 @ F,0,0,1,0,2.6458333,0,1"
       unit="px"
       method="auto"
       mode="F"
       radius="10"
       chamfer_steps="1"
       flexible="false"
       use_knot_distance="true"
       apply_no_radius="true"
       apply_with_radius="true"
       only_selected="false"
       hide_knots="false" />
    <inkscape:path-effect
       effect="fillet_chamfer"
       id="path-effect2545"
       is_visible="true"
       lpeversion="1"
       satellites_param="F,0,0,1,0,2.6458333,0,1 @ F,0,0,1,0,2.6458333,0,1 @ F,0,0,1,0,2.6458333,0,1 @ F,0,0,1,0,2.6458333,0,1"
       unit="px"
       method="auto"
       mode="F"
       radius="10"
       chamfer_steps="1"
       flexible="false"
       use_knot_distance="true"
       apply_no_radius="true"
       apply_with_radius="true"
       only_selected="false"
       hide_knots="false" />
    <inkscape:path-effect
       effect="fillet_chamfer"
       id="path-effect2543"
       is_visible="true"
       lpeversion="1"
       satellites_param="F,0,0,1,0,2.6458333,0,1 @ F,0,0,1,0,2.6458333,0,1 @ F,0,0,1,0,2.6458333,0,1 @ F,0,0,1,0,2.6458333,0,1"
       unit="px"
       method="auto"
       mode="F"
       radius="10"
       chamfer_steps="1"
       flexible="false"
       use_knot_distance="true"
       apply_no_radius="true"
       apply_with_radius="true"
       only_selected="false"
       hide_knots="false" />
    <inkscape:path-effect
       effect="fillet_chamfer"
       id="path-effect2541"
       is_visible="true"
       lpeversion="1"
       satellites_param="F,0,0,1,0,2.6458333,0,1 @ F,0,0,1,0,2.6458333,0,1 @ F,0,0,1,0,2.6458333,0,1 @ F,0,0,1,0,2.6458333,0,1 @ F,0,0,1,0,2.6458333,0,1 @ F,0,0,1,0,2.6458333,0,1 @ F,0,0,1,0,2.6458333,0,1 @ F,0,0,1,0,2.6458333,0,1 @ F,0,0,1,0,2.6458333,0,1 @ F,0,0,1,0,2.6458333,0,1 @ F,0,0,1,0,2.6458333,0,1 @ F,0,0,1,0,2.6458333,0,1"
       unit="px"
       method="auto"
       mode="F"
       radius="10"
       chamfer_steps="1"
       flexible="false"
       use_knot_distance="true"
       apply_no_radius="true"
       apply_with_radius="true"
       only_selected="false"
       hide_knots="false" />
    <inkscape:path-effect
       effect="fillet_chamfer"
       id="path-effect2539"
       is_visible="true"
       lpeversion="1"
       satellites_param="F,0,0,1,0,2.6458333,0,1 @ F,0,0,1,0,2.6458333,0,1 @ F,0,0,1,0,2.6458333,0,1 @ F,0,0,1,0,2.6458333,0,1 @ F,0,0,1,0,2.6458333,0,1 @ F,0,0,1,0,2.6458333,0,1 @ F,0,0,1,0,2.6458333,0,1 @ F,0,0,1,0,2.6458333,0,1 | F,0,0,1,0,2.6458333,0,1 @ F,0,0,1,0,2.6458333,0,1 @ F,0,0,1,0,2.6458333,0,1 @ F,0,0,1,0,2.6458333,0,1"
       unit="px"
       method="auto"
       mode="F"
       radius="10"
       chamfer_steps="1"
       flexible="false"
       use_knot_distance="true"
       apply_no_radius="true"
       apply_with_radius="true"
       only_selected="false"
       hide_knots="false" />
    <inkscape:path-effect
       effect="fillet_chamfer"
       id="path-effect2537"
       is_visible="true"
       lpeversion="1"
       satellites_param="F,0,0,1,0,2.6458333,0,1 @ F,0,0,1,0,2.6458333,0,1 @ F,0,0,1,0,2.6458333,0,1 @ F,0,0,1,0,2.6458333,0,1 @ F,0,0,1,0,2.6458333,0,1 @ F,0,0,1,0,2.6458333,0,1 @ F,0,0,1,0,2.6458333,0,1 @ F,0,0,1,0,2.6458333,0,1 @ F,0,0,1,0,2.6458333,0,1 @ F,0,0,1,0,2.6458333,0,1"
       unit="px"
       method="auto"
       mode="F"
       radius="10"
       chamfer_steps="1"
       flexible="false"
       use_knot_distance="true"
       apply_no_radius="true"
       apply_with_radius="true"
       only_selected="false"
       hide_knots="false" />
    <inkscape:path-effect
       effect="fillet_chamfer"
       id="path-effect2485"
       is_visible="true"
       lpeversion="1"
       satellites_param="F,0,0,1,0,7.4083333,0,1 @ F,0,0,1,0,7.4083333,0,1 @ F,0,0,1,0,7.4083333,0,1 @ F,0,0,1,0,7.4083333,0,1 @ F,0,0,1,0,7.4083333,0,1 @ F,0,0,1,0,7.4083333,0,1 @ F,0,0,1,0,7.4083333,0,1 @ F,0,0,1,0,7.4083333,0,1 @ F,0,0,1,0,7.4083333,0,1 @ F,0,0,1,0,7.4083333,0,1 @ F,0,0,1,0,7.4083333,0,1 @ F,0,0,1,0,7.4083333,0,1 | F,0,0,1,0,7.4083333,0,1 @ F,0,0,1,0,7.4083333,0,1 @ F,0,0,1,0,7.4083333,0,1 @ F,0,0,1,0,7.4083333,0,1 @ F,0,0,1,0,7.4083333,0,1 @ F,0,0,1,0,7.4083333,0,1 @ F,0,0,1,0,7.4083333,0,1 @ F,0,0,1,0,7.4083333,0,1 @ F,0,0,1,0,7.4083333,0,1 @ F,0,0,1,0,7.4083333,0,1 @ F,0,0,1,0,7.4083333,0,1 @ F,0,0,1,0,7.4083333,0,1 | F,0,0,1,0,7.4083333,0,1 @ F,0,0,1,0,7.4083333,0,1 @ F,0,0,1,0,7.4083333,0,1 @ F,0,0,1,0,7.4083333,0,1 | F,0,0,1,0,7.4083333,0,1 @ F,0,0,1,0,7.4083333,0,1 @ F,0,0,1,0,7.4083333,0,1 @ F,0,0,1,0,7.4083333,0,1 @ F,0,0,1,0,7.4083333,0,1 @ F,0,0,1,0,7.4083333,0,1 @ F,0,0,1,0,7.4083333,0,1 @ F,0,0,1,0,7.4083333,0,1 @ F,0,0,1,0,7.4083333,0,1 @ F,0,0,1,0,7.4083333,0,1 @ F,0,0,1,0,7.4083333,0,1 @ F,0,0,1,0,7.4083333,0,1 @ F,0,0,1,0,7.4083333,0,1 @ F,0,0,1,0,7.4083333,0,1 | F,0,0,1,0,7.4083333,0,1 @ F,0,0,1,0,7.4083333,0,1 @ F,0,0,1,0,7.4083333,0,1 @ F,0,0,1,0,7.4083333,0,1 @ F,0,0,1,0,7.4083333,0,1 @ F,0,0,1,0,7.4083333,0,1 @ F,0,0,1,0,7.4083333,0,1 @ F,0,0,1,0,7.4083333,0,1 @ F,0,0,1,0,7.4083333,0,1 @ F,0,0,1,0,7.4083333,0,1 | F,0,0,1,0,7.4083333,0,1 @ F,0,0,1,0,7.4083333,0,1 @ F,0,0,1,0,7.4083333,0,1 @ F,0,0,1,0,7.4083333,0,1 | F,0,0,1,0,7.4083333,0,1 @ F,0,0,1,0,7.4083333,0,1 @ F,0,0,1,0,7.4083333,0,1 @ F,0,0,1,0,7.4083333,0,1 @ F,0,0,1,0,7.4083333,0,1 @ F,0,0,1,0,7.4083333,0,1 @ F,0,0,1,0,7.4083333,0,1 @ F,0,0,1,0,7.4083333,0,1 @ F,0,0,1,0,7.4083333,0,1 @ F,0,0,1,0,7.4083333,0,1 @ F,0,0,1,0,7.4083333,0,1 @ F,0,0,1,0,7.4083333,0,1 @ F,0,0,1,0,7.4083333,0,1 | F,0,0,1,0,7.4083333,0,1 @ F,0,0,1,0,7.4083333,0,1 @ F,0,0,1,0,7.4083333,0,1 @ F,0,0,1,0,7.4083333,0,1 | F,0,0,1,0,7.4083333,0,1 @ F,0,0,1,0,7.4083333,0,1 @ F,0,0,1,0,7.4083333,0,1 @ F,0,0,1,0,7.4083333,0,1 @ F,0,0,1,0,7.4083333,0,1 @ F,0,0,1,0,7.4083333,0,1 @ F,0,0,1,0,7.4083333,0,1 @ F,0,0,1,0,7.4083333,0,1 @ F,0,0,1,0,7.4083333,0,1 @ F,0,0,1,0,7.4083333,0,1 @ F,0,0,1,0,7.4083333,0,1 @ F,0,0,1,0,7.4083333,0,1 | F,0,0,1,0,7.4083333,0,1 @ F,0,0,1,0,7.4083333,0,1 @ F,0,0,1,0,7.4083333,0,1 @ F,0,0,1,0,7.4083333,0,1"
       unit="px"
       method="auto"
       mode="F"
       radius="28"
       chamfer_steps="1"
       flexible="false"
       use_knot_distance="true"
       apply_no_radius="true"
       apply_with_radius="true"
       only_selected="false"
       hide_knots="false" />
    <inkscape:path-effect
       effect="fillet_chamfer"
       id="path-effect1127"
       is_visible="true"
       lpeversion="1"
       satellites_param="F,1,0,1,0,0.11575387,0,1 @ F,1,0,1,0,0.11575573,0,1 @ F,1,0,1,0,0.20578778,0,1 @ F,1,0,1,0,0.11575573,0,1 @ F,1,0,1,0,0.52915986,0,1 @ F,1,0,1,0,0.094978762,0,1 @ F,1,0,1,0,0.11575481,0,1 @ F,1,0,1,0,0.11575479,0,1 @ F,1,0,1,0,0.20578481,0,1 @ F,1,0,1,0,0.11575479,0,1 @ F,1,0,1,0,0.52915986,0,1 @ F,1,0,1,0,0.094978762,0,1"
       unit="px"
       method="auto"
       mode="F"
       radius="0"
       chamfer_steps="1"
       flexible="true"
       use_knot_distance="true"
       apply_no_radius="true"
       apply_with_radius="true"
       only_selected="false"
       hide_knots="false" />
    <inkscape:path-effect
       effect="fillet_chamfer"
       id="path-effect839"
       is_visible="true"
       lpeversion="1"
       satellites_param="F,0,0,1,0,9.7895833,0,8 @ F,0,0,1,0,9.7895833,0,8 @ F,0,0,1,0,9.7895833,0,8 @ F,0,0,1,0,9.7895833,0,8 @ F,0,0,1,0,9.7895833,0,8 @ F,0,0,1,0,9.7895833,0,8 @ F,0,0,1,0,9.7895833,0,8 @ F,0,0,1,0,9.7895833,0,8 @ F,0,0,1,0,9.7895833,0,8 @ F,0,0,1,0,9.7895833,0,8 @ F,0,0,1,0,9.7895833,0,8 @ F,0,0,1,0,9.7895833,0,8 @ F,0,0,1,0,9.7895833,0,8 @ F,0,0,1,0,9.7895833,0,8 @ F,0,0,1,0,9.7895833,0,8 @ F,0,0,1,0,9.7895833,0,8"
       unit="px"
       method="arc"
       mode="F"
       radius="37"
       chamfer_steps="7"
       flexible="false"
       use_knot_distance="true"
       apply_no_radius="true"
       apply_with_radius="true"
       only_selected="false"
       hide_knots="false" />
    <inkscape:path-effect
       effect="fill_between_many"
       id="path-effect4868"
       is_visible="true"
       linkedpaths=""
       lpeversion="0"
       method="bsplinespiro"
       join="true"
       close="true"
       autoreverse="true"
       applied="false" />
    <inkscape:path-effect
       effect="fill_between_strokes"
       id="path-effect4866"
       is_visible="true"
       linkedpath=""
       secondpath=""
       reversesecond="false"
       lpeversion="0"
       join="true"
       close="true" />
    <inkscape:path-effect
       effect="simplify"
       id="path-effect4589"
       is_visible="true"
       steps="1"
       threshold="0.002"
       smooth_angles="0"
       helper_size="5"
       simplify_individual_paths="false"
       simplify_just_coalesce="false"
       lpeversion="0" />
    <inkscape:path-effect
       effect="bspline"
       id="path-effect4587"
       is_visible="true"
       weight="33.333333"
       steps="2"
       helper_size="0"
       apply_no_weight="true"
       apply_with_weight="true"
       only_selected="false"
       lpeversion="0" />
    <inkscape:path-effect
       effect="bend_path"
       id="path-effect4585"
       is_visible="true"
       bendpath="M 21.828859,212.33345 H 93.829011"
       prop_scale="1"
       scale_y_rel="false"
       vertical="false"
       lpeversion="0"
       hide_knot="false" />
    <inkscape:path-effect
       effect="vonkoch"
       id="path-effect4583"
       is_visible="true"
       ref_path="M 21.828859,212.33345 H 93.829011"
       generator="M 21.828859,268.33334 H 45.82891 m 24.00005,0 h 24.000051"
       similar_only="false"
       nbgenerations="1"
       drawall="true"
       maxComplexity="1000"
       lpeversion="0" />
    <inkscape:path-effect
       effect="interpolate"
       id="path-effect4581"
       is_visible="true"
       trajectory="M 0,0 V 0"
       equidistant_spacing="true"
       steps="5"
       lpeversion="0" />
  </defs>
  <sodipodi:namedview
     id="base"
     pagecolor="#ffffff"
     bordercolor="#666666"
     borderopacity="1.0"
     inkscape:pageopacity="0.0"
     inkscape:pageshadow="2"
     inkscape:zoom="0.7"
     inkscape:cx="606.04298"
     inkscape:cy="170.57452"
     inkscape:document-units="mm"
     inkscape:current-layer="layer1"
     showgrid="false"
     units="px"
     inkscape:pagecheckerboard="true"
     inkscape:snap-global="true"
     inkscape:object-paths="true"
     inkscape:snap-intersection-paths="true"
     inkscape:snap-smooth-nodes="true"
     inkscape:snap-midpoints="true"
     inkscape:snap-bbox="true"
     inkscape:window-width="1920"
     inkscape:window-height="996"
     inkscape:window-x="-8"
     inkscape:window-y="-8"
     inkscape:window-maximized="1"
     inkscape:document-rotation="0"
     inkscape:bbox-paths="true"
     inkscape:bbox-nodes="true"
     inkscape:snap-bbox-edge-midpoints="true"
     inkscape:snap-bbox-midpoints="true"
     inkscape:snap-object-midpoints="true"
     inkscape:snap-center="true" />
  <metadata
     id="metadata5">
    <rdf:RDF>
      <cc:Work
         rdf:about="">
        <dc:format>image/svg+xml</dc:format>
        <dc:type
           rdf:resource="http://purl.org/dc/dcmitype/StillImage" />
        <dc:title></dc:title>
      </cc:Work>
    </rdf:RDF>
  </metadata>
  <g
     inkscape:label="レイヤー 1"
     inkscape:groupmode="layer"
     id="layer1"
     transform="translate(0,-127.66665)">
    <path
       id="rect1129"
       style="fill:#764c31;fill-opacity:1;stroke:#e5e5e5;stroke-width:0.749488;stroke-linecap:round;stroke-linejoin:round;stroke-miterlimit:4;stroke-dasharray:none;stroke-opacity:1"
       d="M 53.369362,163.76015 H 336.39869 v 12.47967 H 53.369362 Z" />
    <path
       id="rect4497"
       style="fill:#f9f9f9;fill-opacity:1;stroke:#e5e5e5;stroke-width:0.79375;stroke-linecap:round;stroke-linejoin:round;stroke-miterlimit:4;stroke-dasharray:none;stroke-opacity:1"
       d="m 8.8914469,136.4966 v 67.00676 H 57.891555 V 136.4966 Z" />
    <path
       id="rect841-0-6"
       style="fill:#666666;fill-opacity:1;stroke:none;stroke-width:0.522385;stroke-linecap:round;stroke-linejoin:round;stroke-miterlimit:4;stroke-dasharray:none;stroke-opacity:1"
       d="m 13.891553,145.20396 v 24.59203 a 3.7041667,3.7041667 45 0 0 3.704167,3.70417 h 24.591523 a 3.7041656,3.7041656 45 0 1 3.704166,3.70417 l 0,10.59159 a 3.7041667,3.7041667 135 0 1 -3.704167,3.70417 l -24.591522,0 a 3.7041666,3.7041666 135 0 0 -3.704167,3.70417 3.5059921,3.5059921 41.662307 0 0 3.704167,3.29592 h 31.591612 a 3.7041667,3.7041667 135 0 0 3.704167,-3.70417 v -24.59177 a 3.7041666,3.7041666 45 0 0 -3.704167,-3.70417 H 24.59555 a 3.7041657,3.7041657 45 0 1 -3.704166,-3.70417 v -10.59185 a 3.7041666,3.7041666 135 0 1 3.704167,-3.70417 h 24.591781 a 3.7041666,3.7041666 135 0 0 3.704167,-3.70417 3.5059921,3.5059921 41.662307 0 0 -3.704167,-3.29592 H 17.59572 a 3.7041667,3.7041667 135 0 0 -3.704167,3.70417 z"
       inkscape:path-effect="#path-effect1127"
       inkscape:original-d="m 13.891553,141.49979 c 0,10.66679 0,21.33358 0,32.00037 10.666618,0 21.333237,0 31.999856,0 0,5.99998 0,11.99996 0,17.99993 -10.666619,0 -21.333238,0 -31.999856,0 0,2.33337 0,4.66673 0,7.00009 12.999981,0 25.999963,0 38.999946,0 0,-10.6667 0,-21.3334 0,-32.00011 -10.666706,0 -21.333411,0 -32.000115,0 0,-6.00006 0,-12.00013 0,-18.00019 10.666704,0 21.333409,0 32.000115,0 0,-2.33337 0,-4.66673 0,-7.00009 -12.999983,0 -25.999965,0 -38.999946,0 z" />
    <path
       id="path2509"
       style="fill:#b3b3b3;fill-opacity:1;stroke:#666666;stroke-width:0.681776;stroke-linecap:round;stroke-linejoin:round;stroke-miterlimit:4;stroke-dasharray:none;stroke-opacity:1"
       d="m 95.779165,169.99998 v 1e-5 a 2.6458333,2.6458333 45 0 0 2.645833,2.64583 h 7.937502 a 2.6458333,2.6458333 45 0 1 2.64583,2.64583 v 2.64584 a 2.6458333,2.6458333 135 0 1 -2.64583,2.64583 h -7.937502 a 2.6458333,2.6458333 135 0 0 -2.645833,2.64583 v 13.22917 a 2.6458333,2.6458333 45 0 0 2.645833,2.64583 H 111.65417 A 2.6458333,2.6458333 135 0 0 114.3,196.45832 l 0,-26.45834 a 2.6458333,2.6458333 45 0 0 -2.64583,-2.64583 H 98.424998 a 2.6458333,2.6458333 135 0 0 -2.645833,2.64583 z m 7.937495,15.875 h 2.64584 a 2.6458333,2.6458333 45 0 1 2.64583,2.64583 v 2.64584 a 2.6458333,2.6458333 135 0 1 -2.64583,2.64583 h -2.64584 a 2.6458333,2.6458333 45 0 1 -2.64583,-2.64583 v -2.64584 a 2.6458333,2.6458333 135 0 1 2.64583,-2.64583 z"
       inkscape:path-effect="#path-effect2539"
       inkscape:original-d="m 95.779165,167.35415 c 0,1.76389 0,3.52778 0,5.29167 4.409725,0 8.819445,0 13.229165,0 0,2.64583 0,5.29166 0,7.9375 -4.40972,0 -8.81944,0 -13.229165,0 0,6.17361 0,12.34722 0,18.52083 6.173615,0 12.347225,0 18.520835,0 0,-10.58333 0,-21.16667 0,-31.75 -6.17361,0 -12.34722,0 -18.520835,0 z m 5.291665,18.52083 c 2.64584,0 5.29167,0 7.9375,0 0,2.64584 0,5.29167 0,7.9375 -2.64583,0 -5.29166,0 -7.9375,0 0,-2.64583 0,-5.29166 0,-7.9375 z" />
    <path
       id="path2507"
       style="fill:#b3b3b3;fill-opacity:1;stroke:#666666;stroke-width:0.681776;stroke-linecap:round;stroke-linejoin:round;stroke-miterlimit:4;stroke-dasharray:none;stroke-opacity:1"
       d="m 242.62291,183.22915 v 13.22917 a 2.6458333,2.6458333 45 0 0 2.64583,2.64583 h 1e-5 a 2.6458333,2.6458333 135 0 0 2.64583,-2.64583 v -7.93751 a 2.6458333,2.6458333 135 0 1 2.64583,-2.64583 h 2.64584 a 2.6458333,2.6458333 45 0 1 2.64583,2.64583 v 7.93751 a 2.6458333,2.6458333 45 0 0 2.64583,2.64583 h 1e-5 a 2.6458333,2.6458333 135 0 0 2.64583,-2.64583 v -13.22917 a 2.6458333,2.6458333 45 0 0 -2.64583,-2.64583 h -13.22918 a 2.6458333,2.6458333 135 0 0 -2.64583,2.64583 z"
       inkscape:path-effect="#path-effect862"
       inkscape:original-d="m 242.62291,180.58332 c 0,6.17361 0,12.34722 0,18.52083 1.76389,0 3.52778,0 5.29167,0 0,-4.40972 0,-8.81944 0,-13.22917 2.64583,0 5.29167,0 7.9375,0 0,4.40973 0,8.81945 0,13.22917 1.76389,0 3.52778,0 5.29167,0 0,-6.17361 0,-12.34722 0,-18.52083 -6.17361,0 -12.34723,0 -18.52084,0 z" />
    <path
       id="path2503"
       style="fill:#b3b3b3;fill-opacity:1;stroke:#666666;stroke-width:0.681776;stroke-linecap:round;stroke-linejoin:round;stroke-miterlimit:4;stroke-dasharray:none;stroke-opacity:1"
       d="m 123.4674,183.22915 v 13.22917 a 2.6458333,2.6458333 45 0 0 2.64583,2.64583 2.64583,2.64583 134.99993 0 0 2.64583,-2.64583 v -7.93751 a 2.6458333,2.6458333 135 0 1 2.64583,-2.64583 h 2.64584 a 2.6458333,2.6458333 45 0 1 2.64583,2.64583 v 7.93751 a 2.6458333,2.6458333 45 0 0 2.64583,2.64583 h 1e-5 a 2.6458333,2.6458333 135 0 0 2.64583,-2.64583 v -7.93751 a 2.6458333,2.6458333 135 0 1 2.64583,-2.64583 h 2.64584 a 2.6458333,2.6458333 45 0 1 2.64583,2.64583 v 7.93751 a 2.6458333,2.6458333 45 0 0 2.64583,2.64583 h 1e-5 a 2.6458333,2.6458333 135 0 0 2.64583,-2.64583 v -13.22917 a 2.6458333,2.6458333 45 0 0 -2.64583,-2.64583 h -26.45834 a 2.6458333,2.6458333 135 0 0 -2.64583,2.64583 z"
       inkscape:path-effect="#path-effect2541"
       inkscape:original-d="m 123.4674,180.58332 c 0,6.17361 0,12.34722 0,18.52083 1.76389,0 3.52778,0 5.29166,0 0,-4.40972 0,-8.81944 0,-13.22917 2.64584,0 5.29167,0 7.9375,0 0,4.40973 0,8.81945 0,13.22917 1.76389,0 3.52778,0 5.29167,0 0,-4.40972 0,-8.81944 0,-13.22917 2.64583,0 5.29167,0 7.9375,0 0,4.40973 0,8.81945 0,13.22917 1.76389,0 3.52778,0 5.29167,0 0,-6.17361 0,-12.34722 0,-18.52083 -10.58334,0 -21.16667,0 -31.75,0 z" />
    <path
       id="path2501"
       style="fill:#b3b3b3;fill-opacity:1;stroke:#666666;stroke-width:2.57679;stroke-linecap:round;stroke-linejoin:round;stroke-miterlimit:4;stroke-dasharray:none;stroke-opacity:1"
       d="m 803.62891,160.58333 v 98.83334 A 10.583333,10.583333 45 0 0 814.21224,270 h 48.83334 A 10.583333,10.583333 135 0 0 873.62891,259.41667 10.016999,10.016999 41.661531 0 0 863.04558,250 h -28.83334 a 10.583333,10.583333 45 0 1 -10.58333,-10.58333 l 0,-8.83334 A 10.583333,10.583333 135 0 1 834.21224,220 h 28.83334 a 10.583333,10.583333 135 0 0 10.58333,-10.58333 V 160.58333 A 10.583333,10.583333 45 0 0 863.04558,150 h -48.83334 a 10.583333,10.583333 135 0 0 -10.58333,10.58333 z M 834.21224,170 h 8.83334 a 10.583333,10.583333 45 0 1 10.58333,10.58333 l 0,8.83334 A 10.583333,10.583333 135 0 1 843.04558,200 h -8.83334 a 10.583333,10.583333 45 0 1 -10.58333,-10.58333 l 0,-8.83334 A 10.583333,10.583333 135 0 1 834.21224,170 Z"
       transform="matrix(0.26458333,0,0,0.26458333,0,127.66665)"
       inkscape:path-effect="#path-effect860"
       inkscape:original-d="m 803.62891,150 v 20 100 h 70 v -20 h -50 v -30 h 50 v -20 -50 z m 20,20 h 30 v 30 h -30 z" />
    <path
       id="path2497"
       style="fill:#b3b3b3;fill-opacity:1;stroke:#666666;stroke-width:0.681776;stroke-linecap:round;stroke-linejoin:round;stroke-miterlimit:4;stroke-dasharray:none;stroke-opacity:1"
       d="m 182.69479,169.99998 v 13.22917 a 2.6458333,2.6458333 45 0 0 2.64583,2.64583 h 7.93751 a 2.6458333,2.6458333 45 0 1 2.64583,2.64583 v 2.64584 a 2.6458333,2.6458333 135 0 1 -2.64583,2.64583 h -7.93751 a 2.6458333,2.6458333 135 0 0 -2.64583,2.64583 v 10e-6 a 2.6458333,2.6458333 45 0 0 2.64583,2.64583 h 13.22917 a 2.6458333,2.6458333 135 0 0 2.64583,-2.64583 v -13.22917 a 2.6458333,2.6458333 45 0 0 -2.64583,-2.64583 l -7.9375,0 a 2.6458333,2.6458333 45 0 1 -2.64583,-2.64583 v -2.64584 a 2.6458333,2.6458333 135 0 1 2.64583,-2.64583 h 7.9375 a 2.6458333,2.6458333 135 0 0 2.64583,-2.64583 v -1e-5 a 2.6458333,2.6458333 45 0 0 -2.64583,-2.64583 h -13.22917 a 2.6458333,2.6458333 135 0 0 -2.64583,2.64583 z"
       inkscape:path-effect="#path-effect2547"
       inkscape:original-d="m 182.69479,167.35415 c 0,6.17361 0,12.34722 0,18.52083 4.40972,0 8.81944,0 13.22917,0 0,2.64584 0,5.29167 0,7.9375 -4.40973,0 -8.81945,0 -13.22917,0 0,1.76389 0,3.52778 0,5.29167 6.17361,0 12.34722,0 18.52083,0 0,-6.17361 0,-12.34722 0,-18.52083 -4.40972,0 -8.81944,0 -13.22916,0 0,-2.64584 0,-5.29167 0,-7.9375 4.40972,0 8.81944,0 13.22916,0 0,-1.76389 0,-3.52778 0,-5.29167 -6.17361,0 -12.34722,0 -18.52083,0 z" />
    <path
       id="path2495"
       style="fill:#b3b3b3;fill-opacity:1;stroke:#666666;stroke-width:0.681776;stroke-linecap:round;stroke-linejoin:round;stroke-miterlimit:4;stroke-dasharray:none;stroke-opacity:1"
       d="m 166.81979,156.50287 v 1e-5 a 2.6458333,2.6458333 45 0 0 2.64583,2.64583 h 1e-5 a 2.6458333,2.6458333 135 0 0 2.64583,-2.64583 v -1e-5 a 2.6458333,2.6458333 45 0 0 -2.64583,-2.64583 h -1e-5 a 2.6458333,2.6458333 135 0 0 -2.64583,2.64583 z"
       inkscape:path-effect="#path-effect2543"
       inkscape:original-d="m 166.81979,153.85704 c 0,1.76389 0,3.52778 0,5.29167 1.76389,0 3.52778,0 5.29167,0 0,-1.76389 0,-3.52778 0,-5.29167 -1.76389,0 -3.52778,0 -5.29167,0 z" />
    <path
       id="rect1140"
       style="fill:#b3b3b3;fill-opacity:1;stroke:#666666;stroke-width:0.681776;stroke-linecap:round;stroke-linejoin:round;stroke-miterlimit:4;stroke-dasharray:none;stroke-opacity:1"
       d="m 67.204166,143.54165 v 52.91667 a 2.6458333,2.6458333 45 0 0 2.645833,2.64583 2.645833,2.645833 134.99999 0 0 2.645833,-2.64583 v -21.16667 a 2.6458333,2.6458333 135 0 1 2.645833,-2.64583 h 3.175001 a 2.6458333,2.6458333 45 0 1 2.645833,2.64583 v 21.16667 a 2.6458333,2.6458333 45 0 0 2.645833,2.64583 h 10e-7 a 2.6458333,2.6458333 135 0 0 2.645833,-2.64583 v -26.45834 a 2.6458333,2.6458333 45 0 0 -2.645833,-2.64583 h -8.466668 a 2.6458333,2.6458333 45 0 1 -2.645833,-2.64583 v -21.16667 a 2.6458333,2.6458333 45 0 0 -2.645833,-2.64583 2.645833,2.645833 134.99999 0 0 -2.645833,2.64583 z"
       inkscape:path-effect="#path-effect2537"
       inkscape:original-d="m 67.204166,140.89582 c 0,19.40277 0,38.80555 0,58.20833 1.76389,0 3.527777,0 5.291666,0 0,-8.81944 0,-17.63889 0,-26.45833 2.822223,0 5.644444,0 8.466667,0 0,8.81944 0,17.63889 0,26.45833 1.76389,0 3.527777,0 5.291667,0 0,-10.58333 0,-21.16667 0,-31.75 -4.586111,0 -9.172223,0 -13.758334,0 0,-8.81944 0,-17.63889 0,-26.45833 -1.763889,0 -3.527776,0 -5.291666,0 z" />
    <path
       id="rect1140-6-8"
       style="fill:#f2f2f2;fill-opacity:1;stroke:#999999;stroke-width:0.749;stroke-linecap:round;stroke-linejoin:round;stroke-miterlimit:4;stroke-dasharray:none;stroke-opacity:1"
       d="m 296.50349,167.35416 h 5.29167 v 31.75 h -5.29167 z" />
    <path
       id="rect1140-6-0"
       style="fill:#f2f2f2;fill-opacity:1;stroke:#999999;stroke-width:0.749;stroke-linecap:round;stroke-linejoin:round;stroke-miterlimit:4;stroke-dasharray:none;stroke-opacity:1"
       d="m 321.53302,167.35416 h 5.29167 v 31.75 h -5.29167 z" />
    <path
       id="rect1140-6-1"
       style="fill:#f2f2f2;fill-opacity:1;stroke:#999999;stroke-width:0.749;stroke-linecap:round;stroke-linejoin:round;stroke-miterlimit:4;stroke-dasharray:none;stroke-opacity:1"
       d="m 309.01826,140.89583 h 5.29167 v 31.75 h -5.29167 z" />
    <path
       style="fill:#afafaf;fill-opacity:1;stroke:#666666;stroke-width:0.682;stroke-linecap:round;stroke-linejoin:round;stroke-miterlimit:4;stroke-dasharray:none;stroke-opacity:1"
       id="rect862"
       width="5.0985723"
       height="31.648643"
       x="166.91635"
       y="167.35896"
       inkscape:path-effect="#path-effect884"
       d="m 169.56218,167.35896 a 2.5511137,2.5511137 47.168883 0 1 2.45274,2.64584 v 26.35697 a 2.6458333,2.6458333 135 0 1 -2.64583,2.64584 2.5511137,2.5511137 47.168883 0 1 -2.45274,-2.64584 V 170.0048 a 2.6458333,2.6458333 135 0 1 2.64583,-2.64584 z"
       sodipodi:type="rect" />
  </g>
</svg>
